{
	"asset":{
		"generator":"Khronos glTF Blender I/O v4.1.63",
		"version":"2.0"
	},
	"scene":0,
	"scenes":[
		{
			"name":"Scene",
			"nodes":[
				0
			]
		}
	],
	"nodes":[
		{
			"mesh":0,
			"name":"Tree_temp_climate_015-col",
			"scale":[
				0.009999999776482582,
				0.009999999776482582,
				0.009999999776482582
			],
			"translation":[
				-0.8517026305198669,
				0.8870733380317688,
				0
			]
		}
	],
	"animations":[
		{
			"channels":[
				{
					"sampler":0,
					"target":{
						"node":0,
						"path":"translation"
					}
				},
				{
					"sampler":1,
					"target":{
						"node":0,
						"path":"rotation"
					}
				},
				{
					"sampler":2,
					"target":{
						"node":0,
						"path":"scale"
					}
				}
			],
			"name":"Tree_temp_climate_015|Take 001|BaseLayer",
			"samplers":[
				{
					"input":4,
					"interpolation":"LINEAR",
					"output":5
				},
				{
					"input":4,
					"interpolation":"LINEAR",
					"output":6
				},
				{
					"input":4,
					"interpolation":"LINEAR",
					"output":7
				}
			]
		}
	],
	"materials":[
		{
			"doubleSided":true,
			"name":"Tree",
			"pbrMetallicRoughness":{
				"baseColorTexture":{
					"index":0
				},
				"metallicFactor":0,
				"roughnessFactor":0.5
			}
		}
	],
	"meshes":[
		{
			"name":"Mesh.014",
			"primitives":[
				{
					"attributes":{
						"POSITION":0,
						"NORMAL":1,
						"TEXCOORD_0":2
					},
					"indices":3,
					"material":0
				}
			]
		}
	],
	"textures":[
		{
			"sampler":0,
			"source":0
		}
	],
	"images":[
		{
			"mimeType":"image/png",
			"name":"T_Trees_temp_climate",
			"uri":"T_Trees_temp_climate.png"
		}
	],
	"accessors":[
		{
			"bufferView":0,
			"componentType":5126,
			"count":1545,
			"max":[
				427.3144836425781,
				435.04595947265625,
				183.6435089111328
			],
			"min":[
				-267.30743408203125,
				-89.04959869384766,
				-362.0222473144531
			],
			"type":"VEC3"
		},
		{
			"bufferView":1,
			"componentType":5126,
			"count":1545,
			"type":"VEC3"
		},
		{
			"bufferView":2,
			"componentType":5126,
			"count":1545,
			"type":"VEC2"
		},
		{
			"bufferView":3,
			"componentType":5123,
			"count":1800,
			"type":"SCALAR"
		},
		{
			"bufferView":4,
			"componentType":5126,
			"count":1,
			"max":[
				0.03333333333333333
			],
			"min":[
				0.03333333333333333
			],
			"type":"SCALAR"
		},
		{
			"bufferView":5,
			"componentType":5126,
			"count":1,
			"type":"VEC3"
		},
		{
			"bufferView":6,
			"componentType":5126,
			"count":1,
			"type":"VEC4"
		},
		{
			"bufferView":7,
			"componentType":5126,
			"count":1,
			"type":"VEC3"
		}
	],
	"bufferViews":[
		{
			"buffer":0,
			"byteLength":18540,
			"byteOffset":0,
			"target":34962
		},
		{
			"buffer":0,
			"byteLength":18540,
			"byteOffset":18540,
			"target":34962
		},
		{
			"buffer":0,
			"byteLength":12360,
			"byteOffset":37080,
			"target":34962
		},
		{
			"buffer":0,
			"byteLength":3600,
			"byteOffset":49440,
			"target":34963
		},
		{
			"buffer":0,
			"byteLength":4,
			"byteOffset":53040
		},
		{
			"buffer":0,
			"byteLength":12,
			"byteOffset":53044
		},
		{
			"buffer":0,
			"byteLength":16,
			"byteOffset":53056
		},
		{
			"buffer":0,
			"byteLength":12,
			"byteOffset":53072
		}
	],
	"samplers":[
		{
			"magFilter":9729,
			"minFilter":9987
		}
	],
	"buffers":[
		{
			"byteLength":53084,
			"uri":"Tree1.bin"
		}
	]
}
